<?xml version="1.0" standalone="no"?>
<!DOCTYPE svg PUBLIC "-//W3C//DTD SVG 20010904//EN"
 "http://www.w3.org/TR/2001/REC-SVG-20010904/DTD/svg10.dtd">
<svg version="1.0" xmlns="http://www.w3.org/2000/svg"
 width="1488.000000pt" height="834.000000pt" viewBox="0 0 1488.000000 834.000000"
 preserveAspectRatio="xMidYMid meet">

<g transform="translate(0.000000,834.000000) scale(0.100000,-0.100000)"
fill="#000000" stroke="none">
<path d="M9337 6764 c-67 -21 -122 -78 -143 -150 -15 -52 -15 -67 0 -193 65
-575 254 -1156 489 -1506 116 -172 276 -345 395 -423 l53 -36 -59 -27 c-256
-116 -405 -342 -419 -635 -20 -399 229 -710 623 -779 110 -19 189 -19 299 0
286 50 503 234 593 503 24 70 26 92 26 237 0 145 -2 167 -26 237 -34 101 -87
194 -149 262 -34 37 -46 57 -37 60 69 22 169 48 173 45 2 -3 16 -52 30 -109
15 -58 33 -114 40 -126 20 -32 68 -48 103 -36 l29 10 -19 -50 c-51 -134 -65
-322 -34 -466 28 -133 99 -264 196 -361 90 -90 184 -144 327 -188 78 -23 104
-26 233 -26 129 0 155 3 235 27 271 82 448 261 521 527 28 99 25 300 -4 404
-81 281 -307 477 -605 525 -95 16 -288 8 -372 -14 -83 -22 -230 -97 -292 -148
-28 -24 -71 -67 -94 -96 l-44 -53 -11 64 c-7 35 -22 95 -33 134 l-21 72 51 68
c28 37 75 118 105 178 51 105 57 113 134 173 222 175 378 443 439 755 24 124
26 139 51 403 11 116 29 259 40 318 23 119 20 159 -16 223 -32 55 -78 90 -140
104 -45 10 -62 9 -154 -15 -279 -72 -631 -235 -820 -381 l-57 -44 -54 37
c-214 144 -396 212 -884 332 -176 44 -386 102 -467 130 -81 27 -155 50 -165
49 -10 0 -40 -7 -66 -15z m139 -244 c73 -32 262 -84 537 -150 517 -124 740
-226 964 -443 367 -354 487 -766 326 -1117 -19 -41 -41 -86 -50 -99 l-15 -24
-27 50 c-125 228 -327 448 -701 763 -329 277 -467 428 -549 603 -47 98 -152
102 -191 8 -16 -40 -8 -81 36 -166 90 -175 233 -332 544 -595 396 -334 522
-466 657 -685 24 -38 43 -74 43 -81 0 -17 -132 -52 -243 -65 -159 -18 -329 12
-472 83 -253 127 -481 396 -638 753 -125 281 -236 697 -277 1030 -6 50 -13
105 -16 123 -6 39 4 41 72 12z m2471 -152 c-17 -60 -30 -159 -53 -403 -34
-376 -92 -557 -236 -750 l-53 -70 -7 77 c-25 273 -166 564 -390 804 l-57 61
77 50 c165 107 343 190 562 261 187 60 182 61 157 -30z m-1415 -2298 c53 -15
127 -68 165 -118 66 -87 81 -231 35 -334 -28 -65 -94 -133 -161 -165 -49 -24
-68 -28 -146 -28 -78 0 -97 4 -147 28 -233 115 -251 455 -30 584 85 50 183 61
284 33z m1665 -12 c138 -51 222 -210 193 -364 -33 -172 -178 -283 -354 -272
-120 8 -216 71 -273 181 -25 47 -28 62 -28 152 0 89 3 105 27 150 83 157 260
219 435 153z"/>
<path d="M8094 5265 c-49 -19 -102 -68 -120 -112 -12 -26 -14 -211 -14 -1007
0 -664 3 -984 11 -1003 41 -109 201 -161 315 -102 58 30 103 90 111 146 l5 41
59 -63 c63 -66 153 -121 244 -146 29 -8 94 -14 155 -13 197 1 349 63 486 199
144 142 202 284 211 511 4 98 1 151 -11 210 -58 288 -241 482 -520 554 -212
54 -423 3 -563 -137 l-63 -63 0 421 c0 453 0 448 -54 507 -54 60 -172 86 -252
57z m805 -1176 c100 -44 168 -127 197 -239 45 -177 -40 -373 -191 -436 -138
-57 -292 -26 -398 82 -161 163 -136 424 53 555 100 70 234 85 339 38z"/>
<path d="M2134 5141 c-41 -25 -72 -66 -84 -112 -7 -25 -9 -352 -8 -956 3
-1026 -2 -951 75 -1010 l36 -28 481 0 c542 0 539 0 696 77 65 32 102 59 160
117 129 129 185 277 178 466 -3 91 -7 107 -41 178 -51 108 -135 195 -240 247
-44 22 -86 40 -93 40 -25 0 -15 17 17 31 52 21 128 84 170 139 135 180 92 491
-91 664 -78 73 -160 117 -274 146 -73 19 -112 20 -515 20 -409 0 -438 -1 -467
-19z m833 -399 c70 -37 103 -102 103 -206 0 -37 -8 -77 -19 -101 -23 -51 -79
-101 -128 -114 -21 -6 -122 -11 -225 -11 l-188 0 0 231 0 231 208 -4 c190 -3
210 -5 249 -26z m67 -806 c50 -21 102 -72 127 -124 47 -95 24 -238 -49 -316
-57 -61 -82 -66 -354 -66 l-248 0 0 260 0 260 245 0 c186 0 254 -3 279 -14z"/>
<path d="M7164 4496 c-128 -29 -238 -103 -304 -206 -18 -27 -33 -50 -35 -50
-2 0 -14 19 -28 43 -88 148 -251 223 -468 215 -92 -4 -114 -8 -171 -35 -75
-35 -140 -89 -178 -150 l-27 -43 -5 44 c-11 93 -87 162 -190 173 -72 7 -131
-11 -180 -55 -71 -64 -68 -37 -68 -682 0 -564 1 -582 20 -621 42 -81 151 -129
248 -108 62 13 103 38 138 85 l29 37 5 376 c5 366 6 377 28 426 46 100 107
139 222 139 88 1 140 -21 189 -81 58 -70 61 -93 61 -462 0 -204 4 -351 11
-374 13 -48 61 -102 113 -129 87 -45 225 -18 281 56 39 52 44 102 45 451 0
184 4 346 10 365 32 114 114 175 235 175 80 -1 136 -24 179 -76 60 -71 60 -72
66 -474 5 -404 5 -399 67 -456 46 -44 92 -61 158 -62 73 -1 143 29 180 77 44
58 47 98 43 508 -5 431 -10 470 -78 614 -64 133 -182 231 -321 267 -86 23
-206 28 -275 13z"/>
<path d="M4310 4480 c-164 -43 -303 -136 -395 -265 -59 -83 -90 -151 -116
-260 -18 -77 -20 -110 -16 -235 5 -163 22 -233 85 -355 56 -107 183 -230 292
-284 119 -57 194 -75 325 -75 82 -1 124 4 165 18 98 33 168 77 230 143 60 64
60 64 60 33 0 -46 35 -106 81 -139 103 -75 249 -55 325 45 l29 37 3 597 2 596
-23 44 c-44 84 -161 129 -265 101 -77 -21 -152 -108 -152 -176 0 -24 -5 -21
-63 37 -69 69 -154 117 -252 143 -81 21 -222 19 -315 -5z m417 -399 c76 -36
142 -102 180 -179 24 -49 28 -69 28 -147 0 -78 -4 -98 -28 -150 -86 -184 -290
-267 -472 -190 -169 70 -249 291 -175 486 68 185 282 266 467 180z"/>
</g>
</svg>
